<svg xmlns="http://www.w3.org/2000/svg" aria-hidden="true">
  <symbol id="icon-emblem" viewBox="0 0 64 64">
    <path d="M32 3 57 17v30L32 61 7 47V17L32 3Z" fill="none" stroke="currentColor" stroke-width="3"/>
    <path d="M32 12 48 21v21l-16 9-16-9V21l16-9Z" fill="none" stroke="currentColor" stroke-width="2"/>
    <path d="M21 30h22M21 38h15M32 12v39" fill="none" stroke="currentColor" stroke-width="2.4" stroke-linecap="round"/>
    <circle cx="32" cy="32" r="5" fill="currentColor"/>
  </symbol>
  <symbol id="icon-overview" viewBox="0 0 24 24">
    <path d="M4 5h7v6H4V5Zm9 0h7v4h-7V5ZM4 13h7v6H4v-6Zm9-2h7v8h-7v-8Z" fill="none" stroke="currentColor" stroke-width="1.8" stroke-linejoin="round"/>
  </symbol>
  <symbol id="icon-research" viewBox="0 0 24 24">
    <path d="M6 4h9l3 3v13H6V4Z" fill="none" stroke="currentColor" stroke-width="1.8"/><path d="M15 4v4h4M8 12h8M8 16h6" fill="none" stroke="currentColor" stroke-width="1.8" stroke-linecap="round"/>
  </symbol>
  <symbol id="icon-screener" viewBox="0 0 24 24">
    <path d="M4 6h16M7 12h10M10 18h4" fill="none" stroke="currentColor" stroke-width="2" stroke-linecap="round"/>
  </symbol>
  <symbol id="icon-radar" viewBox="0 0 24 24">
    <circle cx="12" cy="12" r="8" fill="none" stroke="currentColor" stroke-width="1.8"/><path d="M12 12 18 8M12 4v2M12 18v2M4 12h2M18 12h2" fill="none" stroke="currentColor" stroke-width="1.8" stroke-linecap="round"/>
  </symbol>
  <symbol id="icon-review" viewBox="0 0 24 24">
    <path d="M5 5h14v11H8l-3 3V5Z" fill="none" stroke="currentColor" stroke-width="1.8" stroke-linejoin="round"/><path d="M8 9h8M8 13h5" fill="none" stroke="currentColor" stroke-width="1.8" stroke-linecap="round"/>
  </symbol>
  <symbol id="icon-regime" viewBox="0 0 24 24">
    <path d="M4 17c4-8 8 0 16-8M5 6h14M5 21h14" fill="none" stroke="currentColor" stroke-width="1.8" stroke-linecap="round"/>
  </symbol>
  <symbol id="icon-lifecycle" viewBox="0 0 24 24">
    <path d="M7 7a7 7 0 0 1 10 0l2 2M17 17a7 7 0 0 1-10 0l-2-2M19 4v5h-5M5 20v-5h5" fill="none" stroke="currentColor" stroke-width="1.8" stroke-linecap="round" stroke-linejoin="round"/>
  </symbol>
  <symbol id="icon-shield" viewBox="0 0 24 24">
    <path d="M12 3 19 6v6c0 4.5-2.7 7.6-7 9-4.3-1.4-7-4.5-7-9V6l7-3Z" fill="none" stroke="currentColor" stroke-width="1.8" stroke-linejoin="round"/><path d="m8.5 12 2.3 2.3 4.8-5" fill="none" stroke="currentColor" stroke-width="1.8" stroke-linecap="round" stroke-linejoin="round"/>
  </symbol>
  <symbol id="icon-portfolio" viewBox="0 0 24 24">
    <path d="M4 8h16v11H4V8Zm5 0V5h6v3" fill="none" stroke="currentColor" stroke-width="1.8" stroke-linejoin="round"/><path d="M4 13h16" fill="none" stroke="currentColor" stroke-width="1.8"/>
  </symbol>
  <symbol id="icon-alert" viewBox="0 0 24 24">
    <path d="M12 4 21 20H3L12 4Z" fill="none" stroke="currentColor" stroke-width="1.8" stroke-linejoin="round"/><path d="M12 9v5M12 17h.01" fill="none" stroke="currentColor" stroke-width="2" stroke-linecap="round"/>
  </symbol>
  <symbol id="icon-models" viewBox="0 0 24 24">
    <path d="M5 7h14M5 17h14M8 4v6M16 14v6" fill="none" stroke="currentColor" stroke-width="1.8" stroke-linecap="round"/>
  </symbol>
  <symbol id="icon-performance" viewBox="0 0 24 24">
    <path d="M4 18h16M6 15l4-4 3 3 5-7" fill="none" stroke="currentColor" stroke-width="1.8" stroke-linecap="round" stroke-linejoin="round"/>
  </symbol>
  <symbol id="icon-backtest" viewBox="0 0 24 24">
    <path d="M5 5v14h14M8 15l3-3 3 2 4-6" fill="none" stroke="currentColor" stroke-width="1.8" stroke-linecap="round" stroke-linejoin="round"/>
  </symbol>
  <symbol id="icon-paper" viewBox="0 0 24 24">
    <path d="M7 3h8l4 4v14H7V3Z" fill="none" stroke="currentColor" stroke-width="1.8"/><path d="M15 3v5h4M9 13h6M9 17h4" fill="none" stroke="currentColor" stroke-width="1.8" stroke-linecap="round"/>
  </symbol>
  <symbol id="icon-options" viewBox="0 0 24 24">
    <path d="M5 7h14M5 12h14M5 17h14M8 5v14M16 5v14" fill="none" stroke="currentColor" stroke-width="1.8" stroke-linecap="round"/>
  </symbol>
  <symbol id="icon-moonshot" viewBox="0 0 24 24">
    <path d="M12 3c4 2 6 5 6 9 0 5-6 9-6 9s-6-4-6-9c0-4 2-7 6-9Z" fill="none" stroke="currentColor" stroke-width="1.8"/><path d="M9 13h6M10 18l-2 3M14 18l2 3" fill="none" stroke="currentColor" stroke-width="1.8" stroke-linecap="round"/>
  </symbol>
  <symbol id="icon-health" viewBox="0 0 24 24">
    <path d="M4 13h4l2-6 4 12 2-6h4" fill="none" stroke="currentColor" stroke-width="1.8" stroke-linecap="round" stroke-linejoin="round"/>
  </symbol>
  <symbol id="icon-chart" viewBox="0 0 24 24">
    <path d="M4 19V5M4 19h16M8 15v-4M12 15V8M16 15v-7" fill="none" stroke="currentColor" stroke-width="1.8" stroke-linecap="round"/>
  </symbol>
  <symbol id="icon-signal" viewBox="0 0 24 24">
    <path d="M5 19V5M10 19V9M15 19v-6M20 19v-3" fill="none" stroke="currentColor" stroke-width="1.8" stroke-linecap="round"/>
  </symbol>
  <symbol id="icon-allocation" viewBox="0 0 24 24">
    <circle cx="12" cy="12" r="8" fill="none" stroke="currentColor" stroke-width="1.8"/><path d="M12 4v8l6 4" fill="none" stroke="currentColor" stroke-width="1.8" stroke-linecap="round"/>
  </symbol>
  <symbol id="icon-data" viewBox="0 0 24 24">
    <ellipse cx="12" cy="6" rx="7" ry="3" fill="none" stroke="currentColor" stroke-width="1.8"/><path d="M5 6v12c0 1.7 3.1 3 7 3s7-1.3 7-3V6M5 12c0 1.7 3.1 3 7 3s7-1.3 7-3" fill="none" stroke="currentColor" stroke-width="1.8"/>
  </symbol>
  <symbol id="icon-events" viewBox="0 0 24 24">
    <path d="M6 5h12M6 12h12M6 19h12" fill="none" stroke="currentColor" stroke-width="1.8" stroke-linecap="round"/><circle cx="4" cy="5" r="1" fill="currentColor"/><circle cx="4" cy="12" r="1" fill="currentColor"/><circle cx="4" cy="19" r="1" fill="currentColor"/>
  </symbol>
  <symbol id="icon-pending" viewBox="0 0 24 24">
    <circle cx="12" cy="12" r="8" fill="none" stroke="currentColor" stroke-width="1.8"/><path d="M12 7v5l3 3" fill="none" stroke="currentColor" stroke-width="1.8" stroke-linecap="round"/>
  </symbol>
</svg>
